<?xml version="1.0" encoding="UTF-8"?>
<svg id="_レイヤー_4" data-name="レイヤー 4" xmlns="http://www.w3.org/2000/svg" viewBox="0 0 1000 1000">
  <defs>
    <style>
      .cls-1 {
        fill: #0500ff;
        stroke-width: 0px;
      }
    </style>
  </defs>
  <polygon class="cls-1" points="651.52 138.49 303.21 486.8 513.2 696.79 861.51 348.48 651.52 348.48 651.52 138.49"/>
  <polygon class="cls-1" points="746.42 43.59 956.41 253.58 866.75 343.24 871.04 347.52 964.98 253.58 746.42 35.02 652.48 128.96 656.76 133.25 746.42 43.59"/>
  <polygon class="cls-1" points="870.08 348.48 513.2 705.36 294.64 486.8 651.52 129.92 651.52 0 348.48 0 348.48 348.48 0 348.48 0 651.52 134.21 651.52 39.83 745.89 254.11 960.17 348.48 865.79 348.48 1000 651.52 1000 651.52 651.52 1000 651.52 1000 348.48 870.08 348.48"/>
</svg>